<svg width="90" height="101" viewBox="0 0 90 101" fill="none" xmlns="http://www.w3.org/2000/svg">
<path d="M0.498831 0.642519C0.520981 0.775418 2.33728 21.1017 4.53751 45.8137C6.73774 70.5257 8.53927 90.7486 8.54665 90.756C8.55403 90.7633 16.6831 93.03 26.621 95.784L44.688 100.805L62.7993 95.784C72.7594 93.0226 80.918 90.756 80.918 90.7486C80.9253 90.7486 82.7269 70.5404 84.9271 45.8506C87.1273 21.1608 88.9436 0.834485 88.9658 0.679435L89.0101 0.40625H0.461914L0.498831 0.642519ZM72.4567 19.027C72.4567 19.1894 71.9325 25.0887 68.8462 59.65C68.0784 68.2516 67.4212 75.3174 67.3843 75.347C67.3031 75.4208 44.8874 81.6228 44.7102 81.6228C44.5699 81.6228 22.0434 75.3913 21.9917 75.3322C21.9769 75.3174 21.6299 71.5372 21.2238 66.93C20.8103 62.3228 20.4633 58.4096 20.4338 58.2324L20.3969 57.9223H25.9713C29.0428 57.9223 31.5531 57.9297 31.5605 57.9371C31.5605 57.9519 31.7377 59.9306 31.9592 62.3376C32.1733 64.7519 32.3652 66.7306 32.38 66.7454C32.3948 66.7602 35.1635 67.5206 38.5451 68.4288L44.6806 70.09L50.8309 68.4288C54.2199 67.5133 57.0034 66.7528 57.0182 66.7454C57.0477 66.7085 58.2733 53.0346 58.2807 52.658V52.3848H19.8874V52.2003C19.8874 52.0969 19.6733 49.6087 19.4075 46.6775C19.1417 43.7463 18.9276 41.3394 18.9276 41.3246C18.9276 41.3172 28.0165 41.3098 39.121 41.3098H59.3144V41.1253C59.3144 41.0293 59.5285 38.519 59.7943 35.5656C60.0601 32.6049 60.2742 30.1241 60.2742 30.0577C60.2742 29.9469 58.6425 29.9395 39.1062 29.9248L17.9309 29.9026L17.4805 24.882C17.2294 22.1206 17.0006 19.6398 16.971 19.3592L16.9267 18.8646H72.4567V19.027Z" fill="url(#paint0_linear_59_5)"/>
<defs>
<linearGradient id="paint0_linear_59_5" x1="44.736" y1="0.40625" x2="44.736" y2="100.805" gradientUnits="userSpaceOnUse">
<stop stop-color="#E5007B"/>
<stop offset="1" stop-color="#B02771"/>
</linearGradient>
</defs>
</svg>
