<svg width="279" height="42" viewBox="0 0 279 42" fill="none" xmlns="http://www.w3.org/2000/svg">
<path d="M5.4 34.504C3.972 34.504 2.838 34.084 1.998 33.244C1.186 32.376 0.78 31.172 0.78 29.632V2.962L4.644 2.5V29.548C4.644 30.164 4.742 30.612 4.938 30.892C5.162 31.172 5.526 31.312 6.03 31.312C6.562 31.312 7.038 31.228 7.458 31.06L8.466 33.748C7.542 34.252 6.52 34.504 5.4 34.504ZM29.7587 34H26.4407L26.1467 30.556C25.3067 31.928 24.3407 32.936 23.2487 33.58C22.1567 34.196 20.8267 34.504 19.2587 34.504C17.3267 34.504 15.8147 33.916 14.7227 32.74C13.6307 31.564 13.0847 29.898 13.0847 27.742V11.866H16.9487V27.322C16.9487 28.834 17.2147 29.912 17.7467 30.556C18.2787 31.172 19.1467 31.48 20.3507 31.48C22.5067 31.48 24.3547 30.206 25.8947 27.658V11.866H29.7587V34ZM45.804 11.362C47.12 11.362 48.324 11.558 49.416 11.95C50.508 12.314 51.558 12.916 52.566 13.756L50.718 16.192C49.934 15.632 49.164 15.226 48.408 14.974C47.68 14.694 46.868 14.554 45.972 14.554C44.18 14.554 42.78 15.268 41.772 16.696C40.792 18.124 40.302 20.238 40.302 23.038C40.302 25.838 40.792 27.91 41.772 29.254C42.752 30.57 44.152 31.228 45.972 31.228C46.84 31.228 47.638 31.102 48.366 30.85C49.094 30.57 49.906 30.136 50.802 29.548L52.566 32.068C50.55 33.692 48.296 34.504 45.804 34.504C42.808 34.504 40.442 33.496 38.706 31.48C36.998 29.464 36.144 26.678 36.144 23.122C36.144 20.77 36.536 18.712 37.32 16.948C38.104 15.184 39.21 13.812 40.638 12.832C42.094 11.852 43.816 11.362 45.804 11.362ZM72.2965 28.834C72.2965 29.73 72.4505 30.402 72.7585 30.85C73.0665 31.27 73.5285 31.592 74.1445 31.816L73.2625 34.504C72.1145 34.364 71.1905 34.042 70.4905 33.538C69.7905 33.034 69.2725 32.25 68.9365 31.186C67.4525 33.398 65.2545 34.504 62.3425 34.504C60.1585 34.504 58.4365 33.888 57.1765 32.656C55.9165 31.424 55.2865 29.814 55.2865 27.826C55.2865 25.474 56.1265 23.668 57.8065 22.408C59.5145 21.148 61.9225 20.518 65.0305 20.518H68.4325V18.88C68.4325 17.312 68.0545 16.192 67.2985 15.52C66.5425 14.848 65.3805 14.512 63.8125 14.512C62.1885 14.512 60.2005 14.904 57.8485 15.688L56.8825 12.874C59.6265 11.866 62.1745 11.362 64.5265 11.362C67.1305 11.362 69.0765 12.006 70.3645 13.294C71.6525 14.554 72.2965 16.36 72.2965 18.712V28.834ZM63.2245 31.606C65.4365 31.606 67.1725 30.458 68.4325 28.162V23.08H65.5345C61.4465 23.08 59.4025 24.592 59.4025 27.616C59.4025 28.932 59.7245 29.926 60.3685 30.598C61.0125 31.27 61.9645 31.606 63.2245 31.606ZM85.828 11.362C87.34 11.362 88.698 11.572 89.902 11.992C91.106 12.412 92.254 13.042 93.346 13.882L91.708 16.318C90.7 15.674 89.734 15.198 88.81 14.89C87.914 14.582 86.962 14.428 85.954 14.428C84.694 14.428 83.7 14.694 82.972 15.226C82.244 15.73 81.88 16.43 81.88 17.326C81.88 18.222 82.216 18.922 82.888 19.426C83.588 19.93 84.834 20.42 86.626 20.896C89.09 21.512 90.924 22.352 92.128 23.416C93.36 24.48 93.976 25.936 93.976 27.784C93.976 29.968 93.122 31.634 91.414 32.782C89.734 33.93 87.676 34.504 85.24 34.504C81.88 34.504 79.094 33.538 76.882 31.606L78.94 29.254C80.816 30.682 82.888 31.396 85.156 31.396C86.612 31.396 87.76 31.102 88.6 30.514C89.468 29.898 89.902 29.072 89.902 28.036C89.902 27.28 89.748 26.678 89.44 26.23C89.132 25.754 88.6 25.348 87.844 25.012C87.088 24.648 85.982 24.27 84.526 23.878C82.174 23.262 80.466 22.436 79.402 21.4C78.366 20.364 77.848 19.048 77.848 17.452C77.848 16.304 78.184 15.268 78.856 14.344C79.556 13.392 80.508 12.664 81.712 12.16C82.944 11.628 84.316 11.362 85.828 11.362ZM274.835 27.112C275.899 27.112 276.795 27.476 277.523 28.204C278.251 28.932 278.615 29.828 278.615 30.892C278.615 31.508 278.517 32.124 278.321 32.74C278.125 33.356 277.775 34.224 277.271 35.344L274.625 41.434H270.887L272.693 34.042C272.161 33.678 271.741 33.23 271.433 32.698C271.153 32.138 271.013 31.536 271.013 30.892C271.013 29.828 271.377 28.932 272.105 28.204C272.833 27.476 273.743 27.112 274.835 27.112ZM274.835 12.58C275.871 12.58 276.753 12.958 277.481 13.714C278.237 14.442 278.615 15.324 278.615 16.36C278.615 17.424 278.237 18.334 277.481 19.09C276.753 19.818 275.871 20.182 274.835 20.182C273.771 20.182 272.861 19.818 272.105 19.09C271.377 18.334 271.013 17.424 271.013 16.36C271.013 15.324 271.377 14.442 272.105 13.714C272.861 12.958 273.771 12.58 274.835 12.58Z" fill="white"/>
<path d="M122.234 11.152C124.026 11.152 125.454 11.768 126.518 13C127.582 14.204 128.114 15.842 128.114 17.914V34H122.738V18.754C122.738 16.374 121.926 15.184 120.302 15.184C119.434 15.184 118.678 15.464 118.034 16.024C117.418 16.556 116.774 17.396 116.102 18.544V34H110.726V18.754C110.726 16.374 109.914 15.184 108.29 15.184C107.394 15.184 106.624 15.464 105.98 16.024C105.364 16.556 104.72 17.396 104.048 18.544V34H98.6715V11.782H103.334L103.754 14.68C105.434 12.328 107.576 11.152 110.18 11.152C111.468 11.152 112.574 11.488 113.498 12.16C114.45 12.804 115.136 13.714 115.556 14.89C116.452 13.686 117.432 12.762 118.496 12.118C119.588 11.474 120.834 11.152 122.234 11.152ZM143.427 11.152C146.703 11.152 149.251 12.202 151.071 14.302C152.919 16.374 153.843 19.23 153.843 22.87C153.843 25.194 153.423 27.252 152.583 29.044C151.743 30.808 150.539 32.18 148.971 33.16C147.403 34.14 145.541 34.63 143.385 34.63C140.109 34.63 137.547 33.594 135.699 31.522C133.851 29.422 132.927 26.538 132.927 22.87C132.927 20.546 133.347 18.502 134.187 16.738C135.027 14.974 136.231 13.602 137.799 12.622C139.395 11.642 141.271 11.152 143.427 11.152ZM143.427 15.226C140.207 15.226 138.597 17.774 138.597 22.87C138.597 25.502 138.989 27.448 139.773 28.708C140.585 29.94 141.789 30.556 143.385 30.556C144.981 30.556 146.171 29.926 146.955 28.666C147.767 27.406 148.173 25.474 148.173 22.87C148.173 20.266 147.767 18.348 146.955 17.116C146.171 15.856 144.995 15.226 143.427 15.226ZM170.726 11.152C172.714 11.152 174.254 11.754 175.346 12.958C176.466 14.134 177.026 15.786 177.026 17.914V34H171.65V18.754C171.65 17.438 171.412 16.514 170.936 15.982C170.488 15.45 169.816 15.184 168.92 15.184C167.996 15.184 167.156 15.478 166.4 16.066C165.672 16.626 164.958 17.452 164.258 18.544V34H158.882V11.782H163.544L163.964 14.68C165.784 12.328 168.038 11.152 170.726 11.152ZM196.013 32.95C195.229 33.51 194.347 33.93 193.367 34.21C192.415 34.49 191.435 34.63 190.427 34.63C188.243 34.602 186.577 33.986 185.429 32.782C184.309 31.55 183.749 29.744 183.749 27.364V15.646H180.263V11.782H183.749V6.868L189.125 6.238V11.782H194.291L193.745 15.646H189.125V27.238C189.125 28.33 189.307 29.114 189.671 29.59C190.063 30.066 190.665 30.304 191.477 30.304C192.289 30.304 193.171 30.038 194.123 29.506L196.013 32.95ZM216.567 22.366C216.567 22.646 216.525 23.374 216.441 24.55H202.497C202.665 26.706 203.225 28.246 204.177 29.17C205.129 30.094 206.389 30.556 207.957 30.556C208.937 30.556 209.861 30.402 210.729 30.094C211.597 29.758 212.521 29.254 213.501 28.582L215.727 31.648C213.263 33.636 210.519 34.63 207.495 34.63C204.107 34.63 201.489 33.594 199.641 31.522C197.821 29.45 196.911 26.622 196.911 23.038C196.911 20.77 197.303 18.74 198.087 16.948C198.871 15.128 200.005 13.714 201.489 12.706C202.973 11.67 204.737 11.152 206.781 11.152C209.889 11.152 212.297 12.146 214.005 14.134C215.713 16.094 216.567 18.838 216.567 22.366ZM211.233 20.812C211.233 16.92 209.791 14.974 206.907 14.974C205.591 14.974 204.555 15.464 203.799 16.444C203.071 17.396 202.637 18.936 202.497 21.064H211.233V20.812ZM226.766 11.782V34H221.39V11.782H226.766ZM224.036 0.525998C225.044 0.525998 225.856 0.847998 226.472 1.492C227.116 2.108 227.438 2.878 227.438 3.802C227.438 4.726 227.116 5.496 226.472 6.112C225.856 6.728 225.044 7.036 224.036 7.036C223.056 7.036 222.244 6.728 221.6 6.112C220.984 5.496 220.676 4.726 220.676 3.802C220.676 2.878 220.984 2.108 221.6 1.492C222.244 0.847998 223.056 0.525998 224.036 0.525998ZM244.206 11.194C245.018 11.194 245.76 11.292 246.432 11.488L245.508 16.696C244.836 16.528 244.178 16.444 243.534 16.444C242.218 16.444 241.182 16.92 240.426 17.872C239.67 18.796 239.068 20.224 238.62 22.156V34H233.244V11.782H237.906L238.41 16.15C238.942 14.554 239.712 13.336 240.72 12.496C241.728 11.628 242.89 11.194 244.206 11.194ZM257.574 11.152C260.85 11.152 263.398 12.202 265.218 14.302C267.066 16.374 267.99 19.23 267.99 22.87C267.99 25.194 267.57 27.252 266.73 29.044C265.89 30.808 264.686 32.18 263.118 33.16C261.55 34.14 259.688 34.63 257.532 34.63C254.256 34.63 251.694 33.594 249.846 31.522C247.998 29.422 247.074 26.538 247.074 22.87C247.074 20.546 247.494 18.502 248.334 16.738C249.174 14.974 250.378 13.602 251.946 12.622C253.542 11.642 255.418 11.152 257.574 11.152ZM257.574 15.226C254.354 15.226 252.744 17.774 252.744 22.87C252.744 25.502 253.136 27.448 253.92 28.708C254.732 29.94 255.936 30.556 257.532 30.556C259.128 30.556 260.318 29.926 261.102 28.666C261.914 27.406 262.32 25.474 262.32 22.87C262.32 20.266 261.914 18.348 261.102 17.116C260.318 15.856 259.142 15.226 257.574 15.226Z" fill="#E5007B"/>
</svg>
