<svg width="100" height="70" viewBox="0 0 100 70" fill="none" xmlns="http://www.w3.org/2000/svg">
<path d="M97.2783 10.9305C96.1356 6.6281 92.7692 3.23974 88.4939 2.08983C80.7464 0 49.6771 0 49.6771 0C49.6771 0 18.6082 0 10.8603 2.08983C6.58491 3.23974 3.21773 6.6281 2.07586 10.9305C0 18.7289 0 35 0 35C0 35 0 51.2703 2.07586 59.0695C3.21773 63.3723 6.58491 66.7598 10.8598 67.911C18.6078 70 49.6767 70 49.6767 70C49.6767 70 80.746 70 88.4935 67.911C92.7688 66.7602 96.1352 63.3723 97.2779 59.0699C99.3542 51.2707 99.3542 35.0004 99.3542 35.0004C99.3542 35.0004 99.3542 18.7293 97.2779 10.931" fill="#E0E0E0"/>
<path d="M39.5158 49.7728L65.4833 35.0008L39.5158 20.2272V49.7728Z" fill="#110D0F"/>
</svg>
